<?xml version="1.0" standalone="no"?>
<!DOCTYPE svg PUBLIC "-//W3C//DTD SVG 20010904//EN"
 "http://www.w3.org/TR/2001/REC-SVG-20010904/DTD/svg10.dtd">
<svg version="1.0" xmlns="http://www.w3.org/2000/svg"
 width="512.000000pt" height="512.000000pt" viewBox="0 0 512.000000 512.000000"
 preserveAspectRatio="xMidYMid meet">
<metadata>
Created by potrace 1.11, written by Peter Selinger 2001-2013
</metadata>
<g transform="translate(0.000000,512.000000) scale(0.100000,-0.100000)"
fill="#000000" stroke="none">
<path d="M0 2560 l0 -2560 2560 0 2560 0 0 2560 0 2560 -2560 0 -2560 0 0
-2560z m2140 1675 c63 -2 167 -12 230 -20 123 -16 382 -64 398 -74 13 -8 -50
-373 -65 -378 -7 -3 -63 7 -125 21 -267 60 -356 70 -623 70 -204 1 -265 -2
-330 -17 -106 -23 -204 -70 -253 -120 -83 -85 -125 -231 -103 -356 19 -105 52
-165 139 -251 110 -108 232 -185 512 -322 424 -207 451 -221 575 -302 136 -90
316 -262 373 -358 122 -205 129 -537 17 -759 -32 -62 -124 -175 -181 -224
-210 -174 -492 -257 -924 -272 -291 -9 -585 30 -838 112 l-109 35 48 193 c26
105 51 191 56 190 4 -2 60 -21 123 -42 129 -44 314 -84 470 -102 112 -13 361
-7 484 11 398 59 588 241 537 515 -39 210 -197 340 -731 603 -428 211 -560
293 -707 443 -125 129 -185 221 -225 349 -20 65 -23 96 -23 235 0 137 3 171
23 240 88 302 353 506 742 571 62 10 273 21 340 17 30 -1 107 -5 170 -8z
m2157 -1267 c-3 -866 -8 -1257 -16 -1313 -48 -330 -139 -464 -421 -618 -130
-72 -341 -137 -521 -161 l-45 -7 -24 158 c-12 87 -25 163 -27 169 -2 7 30 18
83 28 262 52 434 150 503 285 58 113 55 42 59 1424 l3 1267 205 0 205 0 -4
-1232z"/>
</g>
</svg>
